<mxfile host="app.diagrams.net" modified="2023-02-20T13:37:09.121Z" agent="5.0 (Windows)" etag="E4Rc89zT1zCMQ4r-sEok" version="20.8.20" type="github">
  <diagram id="07fea595-8f29-1299-0266-81d95cde20df" name="Page-1">
    <mxGraphModel dx="1062" dy="717" grid="1" gridSize="10" guides="1" tooltips="1" connect="1" arrows="1" fold="1" page="1" pageScale="1" pageWidth="1169" pageHeight="827" background="#ffffff" math="0" shadow="0">
      <root>
        <mxCell id="0" />
        <mxCell id="1" parent="0" />
        <mxCell id="170" value="&lt;font color=&quot;#23497d&quot;&gt;start&lt;/font&gt;" style="swimlane;whiteSpace=wrap;fillColor=none;swimlaneFillColor=#99CCFF;fontColor=#2F5B7C;fontFamily=Tahoma;html=1;strokeColor=none;opacity=50;" parent="1" vertex="1">
          <mxGeometry x="24.5" y="88.5" width="160" height="650" as="geometry">
            <mxRectangle x="20" y="20" width="80" height="23" as="alternateBounds" />
          </mxGeometry>
        </mxCell>
        <mxCell id="171" value="Load configuration" style="whiteSpace=wrap;shadow=0;fontColor=#FFFFFF;fontFamily=Helvetica;fontStyle=0;html=1;fontSize=12;plain-purple;strokeColor=none;fillColor=#2f5b7c;gradientColor=none;spacing=6;verticalAlign=middle;" parent="170" vertex="1">
          <mxGeometry x="20" y="60" width="120" height="60" as="geometry" />
        </mxCell>
        <mxCell id="HxiFMy0jPUjg-X_vQKH2-223" style="edgeStyle=segmentEdgeStyle;shape=connector;rounded=1;orthogonalLoop=1;jettySize=auto;html=1;labelBackgroundColor=default;strokeColor=#2F5B7C;strokeWidth=3;fontFamily=Helvetica;fontSize=11;fontColor=default;endArrow=block;endFill=1;" parent="170" source="172" target="HxiFMy0jPUjg-X_vQKH2-220" edge="1">
          <mxGeometry relative="1" as="geometry" />
        </mxCell>
        <mxCell id="172" value="Setup logger" style="whiteSpace=wrap;strokeColor=none;fillColor=#2f5b7c;shadow=0;fontColor=#FFFFFF;fontFamily=Helvetica;fontStyle=0;html=1;fontSize=12;spacing=6;verticalAlign=middle;" parent="170" vertex="1">
          <mxGeometry x="25.5" y="171.5" width="120" height="60" as="geometry" />
        </mxCell>
        <mxCell id="173" value="Ticker Service" style="whiteSpace=wrap;strokeColor=none;fillColor=#2f5b7c;shadow=0;fontColor=#FFFFFF;fontFamily=Helvetica;fontStyle=0;html=1;fontSize=12;spacing=6;verticalAlign=middle;" parent="170" vertex="1">
          <mxGeometry x="25.5" y="361.5" width="120" height="60" as="geometry" />
        </mxCell>
        <mxCell id="175" value="" style="edgeStyle=segmentEdgeStyle;strokeColor=#2F5B7C;strokeWidth=3;html=1;endArrow=block;endFill=1;" parent="170" source="171" target="172" edge="1">
          <mxGeometry width="100" height="100" relative="1" as="geometry">
            <mxPoint x="160" y="110" as="sourcePoint" />
            <mxPoint x="260" y="185" as="targetPoint" />
          </mxGeometry>
        </mxCell>
        <mxCell id="HxiFMy0jPUjg-X_vQKH2-220" value="&lt;div&gt;Init Local DB&lt;/div&gt;&lt;div&gt;{pocketbase}&lt;br&gt;&lt;/div&gt;" style="whiteSpace=wrap;strokeColor=none;fillColor=#2f5b7c;shadow=0;fontColor=#FFFFFF;fontFamily=Helvetica;fontStyle=0;html=1;fontSize=12;spacing=6;verticalAlign=middle;" parent="170" vertex="1">
          <mxGeometry x="25.5" y="265.5" width="120" height="60" as="geometry" />
        </mxCell>
        <mxCell id="176" value="&lt;font color=&quot;#23497d&quot;&gt;Inside Sales Manager&lt;/font&gt;" style="swimlane;whiteSpace=wrap;fillColor=none;swimlaneFillColor=#BAC8D3;fontColor=#2F5B7C;fontFamily=Tahoma;html=1;strokeColor=none;opacity=25;" parent="1" vertex="1">
          <mxGeometry x="824.5" y="88.5" width="160" height="650" as="geometry">
            <mxRectangle x="20" y="20" width="80" height="23" as="alternateBounds" />
          </mxGeometry>
        </mxCell>
        <mxCell id="177" value="Sales Contract" style="shape=document;whiteSpace=wrap;verticalAlign=middle;strokeColor=none;fillColor=#12aab5;shadow=0;fontColor=#FFFFFF;fontFamily=Helvetica;fontStyle=0;html=1;fontSize=12;spacing=6;spacingBottom=22;" parent="176" vertex="1">
          <mxGeometry x="20" y="50" width="120" height="80" as="geometry" />
        </mxCell>
        <mxCell id="178" value="Bills" style="shape=document;whiteSpace=wrap;verticalAlign=middle;strokeColor=none;fillColor=#12aab5;shadow=0;fontColor=#FFFFFF;fontFamily=Helvetica;fontStyle=0;html=1;fontSize=12;spacing=6;spacingBottom=22;" parent="176" vertex="1">
          <mxGeometry x="20" y="530" width="120" height="80" as="geometry" />
        </mxCell>
        <mxCell id="179" value="Cost Allocation" style="whiteSpace=wrap;strokeColor=none;fillColor=#2f5b7c;shadow=0;fontColor=#FFFFFF;fontFamily=Helvetica;fontStyle=0;html=1;fontSize=12;spacing=6;verticalAlign=middle;" parent="176" vertex="1">
          <mxGeometry x="20" y="305" width="120" height="60" as="geometry" />
        </mxCell>
        <mxCell id="180" value="&lt;font color=&quot;#23497d&quot;&gt;VP Sales&lt;/font&gt;" style="swimlane;whiteSpace=wrap;fillColor=none;swimlaneFillColor=#BAC8D3;fontColor=#2F5B7C;fontFamily=Tahoma;html=1;strokeColor=none;opacity=50;" parent="1" vertex="1">
          <mxGeometry x="664.5" y="88.5" width="160" height="650" as="geometry">
            <mxRectangle x="20" y="20" width="80" height="23" as="alternateBounds" />
          </mxGeometry>
        </mxCell>
        <mxCell id="181" value="Outbound Accounting" style="whiteSpace=wrap;fillColor=#2f5b7c;strokeColor=none;shadow=0;fontColor=#FFFFFF;fontFamily=Helvetica;fontStyle=0;html=1;fontSize=12;spacing=6;verticalAlign=middle;" parent="180" vertex="1">
          <mxGeometry x="20" y="160" width="120" height="60" as="geometry" />
        </mxCell>
        <mxCell id="182" value="Account Processing" style="whiteSpace=wrap;strokeColor=none;fillColor=#2f5b7c;shadow=0;fontColor=#FFFFFF;fontFamily=Helvetica;fontStyle=0;html=1;fontSize=12;spacing=6;verticalAlign=middle;" parent="180" vertex="1">
          <mxGeometry x="20" y="420" width="120" height="60" as="geometry" />
        </mxCell>
        <mxCell id="183" value="&lt;font color=&quot;#23497d&quot;&gt;Ticker&lt;br&gt;&lt;/font&gt;" style="swimlane;whiteSpace=wrap;fillColor=none;swimlaneFillColor=#BAC8D3;fontColor=#2F5B7C;fontFamily=Tahoma;html=1;strokeColor=none;opacity=25;" parent="1" vertex="1">
          <mxGeometry x="184.5" y="88.5" width="160" height="650" as="geometry">
            <mxRectangle x="20" y="20" width="80" height="23" as="alternateBounds" />
          </mxGeometry>
        </mxCell>
        <mxCell id="HxiFMy0jPUjg-X_vQKH2-227" style="edgeStyle=segmentEdgeStyle;shape=connector;rounded=1;orthogonalLoop=1;jettySize=auto;html=1;entryX=0.5;entryY=0;entryDx=0;entryDy=0;labelBackgroundColor=default;strokeColor=#12AAB5;strokeWidth=3;fontFamily=Helvetica;fontSize=11;fontColor=default;endArrow=block;endFill=1;" parent="183" source="185" target="HxiFMy0jPUjg-X_vQKH2-226" edge="1">
          <mxGeometry relative="1" as="geometry" />
        </mxCell>
        <mxCell id="185" value="&lt;div&gt;Login &lt;br&gt;&lt;/div&gt;&lt;div&gt;Zerodha Ticker&lt;br&gt;&lt;/div&gt;&lt;div&gt;(app.admin_id)&lt;/div&gt;" style="shape=document;whiteSpace=wrap;verticalAlign=middle;strokeColor=none;fillColor=#12aab5;shadow=0;fontColor=#FFFFFF;fontFamily=Helvetica;fontStyle=0;html=1;fontSize=12;spacing=6;spacingBottom=22;" parent="183" vertex="1">
          <mxGeometry x="20" y="411.5" width="120" height="80" as="geometry" />
        </mxCell>
        <mxCell id="HxiFMy0jPUjg-X_vQKH2-226" value="start ticker db ser" style="shape=document;whiteSpace=wrap;verticalAlign=middle;strokeColor=none;fillColor=#12aab5;shadow=0;fontColor=#FFFFFF;fontFamily=Helvetica;fontStyle=0;html=1;fontSize=12;spacing=6;spacingBottom=22;" parent="183" vertex="1">
          <mxGeometry x="20" y="521.5" width="120" height="48.5" as="geometry" />
        </mxCell>
        <mxCell id="HxiFMy0jPUjg-X_vQKH2-231" style="edgeStyle=segmentEdgeStyle;shape=connector;rounded=1;orthogonalLoop=1;jettySize=auto;html=1;labelBackgroundColor=default;strokeColor=#12AAB5;strokeWidth=3;fontFamily=Helvetica;fontSize=11;fontColor=default;endArrow=block;endFill=1;exitX=0.5;exitY=0;exitDx=0;exitDy=0;entryX=0.775;entryY=0.008;entryDx=0;entryDy=0;entryPerimeter=0;" parent="183" source="185" target="185" edge="1">
          <mxGeometry relative="1" as="geometry">
            <Array as="points">
              <mxPoint x="80" y="372" />
              <mxPoint x="113" y="372" />
            </Array>
          </mxGeometry>
        </mxCell>
        <mxCell id="HxiFMy0jPUjg-X_vQKH2-232" value="login retry (5x)" style="edgeLabel;html=1;align=center;verticalAlign=middle;resizable=0;points=[];fontSize=11;fontFamily=Helvetica;fontColor=default;labelBackgroundColor=none;" parent="HxiFMy0jPUjg-X_vQKH2-231" vertex="1" connectable="0">
          <mxGeometry x="-0.1104" relative="1" as="geometry">
            <mxPoint x="5" y="-7" as="offset" />
          </mxGeometry>
        </mxCell>
        <mxCell id="187" value="&lt;font color=&quot;#23497d&quot;&gt;Sales Representative&lt;/font&gt;" style="swimlane;whiteSpace=wrap;fillColor=none;swimlaneFillColor=#BAC8D3;fontColor=#2F5B7C;fontFamily=Tahoma;html=1;strokeColor=none;opacity=50;" parent="1" vertex="1">
          <mxGeometry x="344.5" y="88.5" width="160" height="650" as="geometry">
            <mxRectangle x="20" y="20" width="80" height="23" as="alternateBounds" />
          </mxGeometry>
        </mxCell>
        <mxCell id="188" value="Product Quotations" style="shape=document;whiteSpace=wrap;verticalAlign=middle;strokeColor=none;fillColor=#12aab5;shadow=0;fontColor=#FFFFFF;fontFamily=Helvetica;fontStyle=0;html=1;fontSize=12;spacing=6;spacingBottom=22;" parent="187" vertex="1">
          <mxGeometry x="20" y="50" width="120" height="80" as="geometry" />
        </mxCell>
        <mxCell id="193" value="&lt;font color=&quot;#23497d&quot;&gt;Timescale Db&lt;br&gt;&lt;/font&gt;" style="swimlane;whiteSpace=wrap;fillColor=#fa6800;swimlaneFillColor=#FFB570;fontColor=#000000;fontFamily=Tahoma;html=1;strokeColor=#C73500;swimlaneLine=0;glass=0;rounded=0;shadow=0;" parent="1" vertex="1">
          <mxGeometry x="504.5" y="88.5" width="160" height="650" as="geometry">
            <mxRectangle x="20" y="20" width="80" height="23" as="alternateBounds" />
          </mxGeometry>
        </mxCell>
        <mxCell id="HxiFMy0jPUjg-X_vQKH2-228" value="&lt;div&gt;store ticks&lt;/div&gt;&lt;div&gt;(db.ticker_batchsize)&lt;br&gt;&lt;/div&gt;" style="whiteSpace=wrap;strokeColor=none;fillColor=#2f5b7c;shadow=0;fontColor=#FFFFFF;fontFamily=Helvetica;fontStyle=0;html=1;fontSize=12;spacing=6;verticalAlign=middle;" parent="193" vertex="1">
          <mxGeometry x="20.5" y="571.5" width="120" height="60" as="geometry" />
        </mxCell>
        <mxCell id="196" value="Director" style="swimlane;whiteSpace=wrap;fillColor=none;swimlaneFillColor=#BAC8D3;fontColor=#2F5B7C;fontFamily=Tahoma;html=1;strokeColor=none;opacity=50;" parent="1" vertex="1">
          <mxGeometry x="984.5" y="88.5" width="160" height="650" as="geometry">
            <mxRectangle x="20" y="20" width="80" height="23" as="alternateBounds" />
          </mxGeometry>
        </mxCell>
        <mxCell id="197" value="Outbounding Management" style="shape=document;whiteSpace=wrap;verticalAlign=middle;strokeColor=none;fillColor=#12aab5;shadow=0;fontColor=#FFFFFF;fontFamily=Helvetica;fontStyle=0;html=1;fontSize=12;spacing=6;spacingBottom=22;" parent="196" vertex="1">
          <mxGeometry x="20" y="130" width="120" height="80" as="geometry" />
        </mxCell>
        <mxCell id="198" value="Resources Allocation" style="whiteSpace=wrap;strokeColor=none;fillColor=#2f5b7c;shadow=0;fontColor=#FFFFFF;fontFamily=Helvetica;fontStyle=0;html=1;fontSize=12;spacing=6;verticalAlign=middle;" parent="196" vertex="1">
          <mxGeometry x="20" y="255" width="120" height="60" as="geometry" />
        </mxCell>
        <mxCell id="199" value="Long Term Strategy" style="whiteSpace=wrap;strokeColor=none;fillColor=#2f5b7c;shadow=0;fontColor=#FFFFFF;fontFamily=Helvetica;fontStyle=0;html=1;fontSize=12;spacing=6;verticalAlign=middle;" parent="196" vertex="1">
          <mxGeometry x="20" y="400" width="120" height="60" as="geometry" />
        </mxCell>
        <mxCell id="200" value="" style="edgeStyle=segmentEdgeStyle;strokeColor=#2F5B7C;strokeWidth=3;html=1;endArrow=block;endFill=1;" parent="196" source="198" target="199" edge="1">
          <mxGeometry width="100" height="100" relative="1" as="geometry">
            <mxPoint x="30" y="570" as="sourcePoint" />
            <mxPoint x="130" y="470" as="targetPoint" />
          </mxGeometry>
        </mxCell>
        <mxCell id="201" value="" style="edgeStyle=segmentEdgeStyle;entryX=0.25;entryY=0;strokeColor=#12AAB5;strokeWidth=3;html=1;endArrow=block;endFill=1;" parent="196" source="197" target="198" edge="1">
          <mxGeometry width="100" height="100" relative="1" as="geometry">
            <mxPoint x="-120" y="260" as="sourcePoint" />
            <mxPoint x="-20" y="160" as="targetPoint" />
          </mxGeometry>
        </mxCell>
        <mxCell id="209" value="" style="edgeStyle=none;strokeColor=#2F5B7C;strokeWidth=3;html=1;endArrow=block;endFill=1;" parent="1" target="181" edge="1">
          <mxGeometry x="644.5" y="278.5" width="100" height="100" as="geometry">
            <mxPoint x="644.5" y="278.5" as="sourcePoint" />
            <mxPoint x="784.5" y="358.5" as="targetPoint" />
          </mxGeometry>
        </mxCell>
        <mxCell id="211" value="" style="edgeStyle=segmentEdgeStyle;strokeColor=#2F5B7C;strokeWidth=3;html=1;endArrow=block;endFill=1;" parent="1" target="181" edge="1">
          <mxGeometry x="644.5" y="308.5" width="100" height="100" as="geometry">
            <mxPoint x="644.5" y="433.51724137931046" as="sourcePoint" />
            <mxPoint x="744.5" y="338.5" as="targetPoint" />
          </mxGeometry>
        </mxCell>
        <mxCell id="212" value="" style="edgeStyle=segmentEdgeStyle;strokeColor=#2F5B7C;strokeWidth=3;html=1;endArrow=block;endFill=1;" parent="1" target="182" edge="1">
          <mxGeometry x="644.5" y="433.5" width="100" height="100" as="geometry">
            <mxPoint x="644.5" y="433.51724137931046" as="sourcePoint" />
            <mxPoint x="614.5" y="488.5" as="targetPoint" />
          </mxGeometry>
        </mxCell>
        <mxCell id="213" value="" style="edgeStyle=segmentEdgeStyle;strokeColor=#2F5B7C;strokeWidth=3;html=1;endArrow=block;endFill=1;" parent="1" source="181" target="177" edge="1">
          <mxGeometry x="744.5" y="178.5" width="100" height="100" as="geometry">
            <mxPoint x="864.5" y="378.5" as="sourcePoint" />
            <mxPoint x="964.5" y="278.5" as="targetPoint" />
            <Array as="points">
              <mxPoint x="744.5" y="178.5" />
            </Array>
          </mxGeometry>
        </mxCell>
        <mxCell id="214" value="" style="edgeStyle=segmentEdgeStyle;strokeColor=#2F5B7C;strokeWidth=3;html=1;endArrow=block;endFill=1;" parent="1" source="181" target="179" edge="1">
          <mxGeometry x="804.5" y="278.5" width="100" height="100" as="geometry">
            <mxPoint x="854.5" y="388.5" as="sourcePoint" />
            <mxPoint x="954.5" y="288.5" as="targetPoint" />
          </mxGeometry>
        </mxCell>
        <mxCell id="215" value="" style="edgeStyle=segmentEdgeStyle;strokeColor=#2F5B7C;strokeWidth=3;html=1;endArrow=block;endFill=1;" parent="1" source="182" target="178" edge="1">
          <mxGeometry x="804.5" y="538.5" width="100" height="100" as="geometry">
            <mxPoint x="884.5" y="578.5" as="sourcePoint" />
            <mxPoint x="984.5" y="478.5" as="targetPoint" />
          </mxGeometry>
        </mxCell>
        <mxCell id="216" value="" style="edgeStyle=segmentEdgeStyle;strokeColor=#2F5B7C;strokeWidth=3;html=1;endArrow=block;endFill=1;" parent="1" source="179" target="199" edge="1">
          <mxGeometry x="964.5" y="423.5" width="100" height="100" as="geometry">
            <mxPoint x="1094.5" y="498.5" as="sourcePoint" />
            <mxPoint x="1194.5" y="398.5" as="targetPoint" />
          </mxGeometry>
        </mxCell>
        <mxCell id="217" value="" style="edgeStyle=segmentEdgeStyle;strokeColor=#12AAB5;strokeWidth=3;html=1;endArrow=block;endFill=1;" parent="1" source="177" target="197" edge="1">
          <mxGeometry x="964.5" y="178.5" width="100" height="100" as="geometry">
            <mxPoint x="854.5" y="348.5" as="sourcePoint" />
            <mxPoint x="954.5" y="248.5" as="targetPoint" />
          </mxGeometry>
        </mxCell>
        <mxCell id="HxiFMy0jPUjg-X_vQKH2-219" style="edgeStyle=none;curved=1;rounded=0;orthogonalLoop=1;jettySize=auto;html=1;entryX=0.5;entryY=0;entryDx=0;entryDy=0;fontSize=12;startSize=8;endSize=8;" parent="1" source="HxiFMy0jPUjg-X_vQKH2-217" target="171" edge="1">
          <mxGeometry relative="1" as="geometry" />
        </mxCell>
        <mxCell id="HxiFMy0jPUjg-X_vQKH2-217" value="" style="ellipse;whiteSpace=wrap;html=1;fontSize=12;fillColor=#2f5b7c;strokeColor=none;fontColor=#FFFFFF;shadow=0;fontStyle=0;gradientColor=none;spacing=6;" parent="1" vertex="1">
          <mxGeometry x="30" y="30" width="40" height="40" as="geometry" />
        </mxCell>
        <mxCell id="HxiFMy0jPUjg-X_vQKH2-225" style="edgeStyle=segmentEdgeStyle;shape=connector;rounded=1;orthogonalLoop=1;jettySize=auto;html=1;labelBackgroundColor=default;strokeColor=#2F5B7C;strokeWidth=3;fontFamily=Helvetica;fontSize=11;fontColor=default;endArrow=block;endFill=1;entryX=0.247;entryY=0.02;entryDx=0;entryDy=0;entryPerimeter=0;" parent="1" source="173" target="185" edge="1">
          <mxGeometry relative="1" as="geometry" />
        </mxCell>
        <mxCell id="HxiFMy0jPUjg-X_vQKH2-229" style="edgeStyle=segmentEdgeStyle;shape=connector;rounded=1;orthogonalLoop=1;jettySize=auto;html=1;entryX=0;entryY=0.5;entryDx=0;entryDy=0;labelBackgroundColor=default;strokeColor=#A50040;strokeWidth=3;fontFamily=Helvetica;fontSize=11;fontColor=default;endArrow=block;endFill=1;fillColor=#d80073;dashed=1;" parent="1" source="HxiFMy0jPUjg-X_vQKH2-226" target="HxiFMy0jPUjg-X_vQKH2-228" edge="1">
          <mxGeometry relative="1" as="geometry">
            <Array as="points">
              <mxPoint x="265" y="690" />
            </Array>
          </mxGeometry>
        </mxCell>
        <mxCell id="ixJH4arz2UQ3CPKyVIQP-217" value="channel" style="edgeLabel;html=1;align=center;verticalAlign=middle;resizable=0;points=[];fontSize=16;labelBackgroundColor=none;fontColor=#660066;" vertex="1" connectable="0" parent="HxiFMy0jPUjg-X_vQKH2-229">
          <mxGeometry x="0.2466" y="1" relative="1" as="geometry">
            <mxPoint y="-9" as="offset" />
          </mxGeometry>
        </mxCell>
        <mxCell id="HxiFMy0jPUjg-X_vQKH2-233" style="edgeStyle=segmentEdgeStyle;shape=connector;rounded=1;orthogonalLoop=1;jettySize=auto;html=1;exitX=0;exitY=0.5;exitDx=0;exitDy=0;labelBackgroundColor=default;strokeColor=#12AAB5;strokeWidth=3;fontFamily=Helvetica;fontSize=11;fontColor=#FFFFFF;endArrow=block;endFill=1;entryX=0.25;entryY=1;entryDx=0;entryDy=0;" parent="1" source="185" target="173" edge="1">
          <mxGeometry relative="1" as="geometry">
            <mxPoint x="100" y="640" as="targetPoint" />
          </mxGeometry>
        </mxCell>
      </root>
    </mxGraphModel>
  </diagram>
</mxfile>
